<svg width="186" height="188" viewBox="0 0 186 188" fill="none" xmlns="http://www.w3.org/2000/svg">
<ellipse cx="85" cy="37" rx="85" ry="37" transform="matrix(0.999586 -0.028783 0.0408809 0.999164 10.3584 113.809)" fill="#37286B"/>
<ellipse cx="85" cy="37" rx="85" ry="37" transform="matrix(0.945376 -0.325981 0.332634 0.943056 0 55.4167)" fill="#C8A8FF"/>
<ellipse cx="85" cy="37" rx="85" ry="37" transform="matrix(0.977364 0.211566 0.217623 -0.976033 3.00879 120.701)" fill="#644DBB"/>
<path d="M11.4726 83.336C16.9551 64.1043 57.1268 56.4897 102.203 66.3523C117.037 69.5982 130.582 74.3409 141.965 79.9441C131.387 86.6979 118.613 92.8671 104.412 97.7415C60.2252 112.909 18.9785 109.826 12.2853 90.8558C11.4445 88.4726 11.1889 85.9519 11.4726 83.336Z" fill="#7960CC"/>
<path fill-rule="evenodd" clip-rule="evenodd" d="M95.3013 111.255C128.546 110.298 157.671 117.778 172.124 129.48C159.061 142.688 124.341 146.957 86.086 138.679C68.4083 134.854 52.557 128.905 40.0009 121.899C54.6809 115.838 74.0066 111.869 95.3013 111.255Z" fill="#4C398B"/>
</svg>
